# xmcd
#
# Track frame offsets: 
#        150
#        19329
#        40165
#        58804
#        74279
#        95280
#        109639
#        121739
#        136390
#        147559
#        167052
#        184118
#        207820
#        229682
#        251929
#        274185
#
# Disc length: 4053 seconds
#
# Revision: 0
# Processed by: cddbd v1.5.2PL0 Copyright (c) Steve Scherf et al.
# Submitted via: ExactAudioCopy v0.99pb4
#
DISCID=eb0fd310
DTITLE=Shawn Mullins - Live at the Variety Playhouse
DYEAR=2008
DGENRE=
TTITLE0=Beautiful Wreck
TTITLE1=All in My Head
TTITLE2=Ballad of Kathryn Johnston
TTITLE3=Anchored in You
TTITLE4=Santa Fe
TTITLE5=Billy Jo McKay
TTITLE6=Fraction of a Man
TTITLE7=Home
TTITLE8=Lonesome, I Know You Too Well
TTITLE9=Twin Rocks, Oregon
TTITLE10=Gulf of Mexico
TTITLE11=Shimmer
TTITLE12=Cabbagetown
TTITLE13=Cold Black Heart
TTITLE14=Lullaby
TTITLE15=House of the Rising Sun
EXTD=
EXTT0=
EXTT1=
EXTT2=
EXTT3=
EXTT4=
EXTT5=
EXTT6=
EXTT7=
EXTT8=
EXTT9=
EXTT10=
EXTT11=
EXTT12=
EXTT13=
EXTT14=
EXTT15=
PLAYORDER=
